<?xml version="1.0" encoding="UTF-8"?>
<!DOCTYPE svg PUBLIC "-//W3C//DTD SVG 1.1//EN" "http://www.w3.org/Graphics/SVG/1.1/DTD/svg11.dtd">
<!-- Creator: CorelDRAW -->
<svg xmlns="http://www.w3.org/2000/svg" xml:space="preserve" width="105.356mm" height="21.1666mm" version="1.1" style="shape-rendering:geometricPrecision; text-rendering:geometricPrecision; image-rendering:optimizeQuality; fill-rule:evenodd; clip-rule:evenodd"
viewBox="0 0 10535.58 2116.66"
 xmlns:xlink="http://www.w3.org/1999/xlink"
 xmlns:xodm="http://www.corel.com/coreldraw/odm/2003">
 <defs>
  <style type="text/css">
   <![CDATA[
    .fil0 {fill:black;fill-rule:nonzero}
   ]]>
  </style>
 </defs>
 <g id="Camada_x0020_1">
  <metadata id="CorelCorpID_0Corel-Layer"/>
  <path class="fil0" d="M721.55 474.28l313.09 0 0 1049.02c0,212.24 -40.11,358.44 -120.71,439.05 -81,80.6 -213.04,132.03 -396.52,154.31l-113.81 -246.66c107.74,-9.72 187.53,-32.4 239.78,-68.86 52.25,-36.45 78.17,-105.3 78.17,-206.56 -78.98,69.66 -172.54,105.31 -279.87,106.93 -107.74,1.63 -207.37,-49.01 -299.32,-151.89 -91.54,-102.88 -138.92,-258.81 -142.17,-467.8 -3.23,-208.59 41.73,-368.58 135.28,-479.15 93.16,-110.97 204.13,-163.62 332.12,-159.17 127.99,4.86 212.64,37.26 253.96,97.2l0 -66.42zm0 821.4l0 -451.2c-72.91,-69.27 -140.14,-102.48 -201.71,-99.64 -61.56,3.24 -109.76,30.37 -144.59,81.01 -34.83,50.63 -53.06,127.17 -54.68,230.05 -1.62,102.88 17.42,186.71 56.71,251.52 39.69,64.8 93.56,96.4 161.6,94.77 68.04,-1.2 128.8,-36.85 182.67,-106.51zm1547.2 208.59c-139.32,133.25 -293.24,197.24 -462.53,192.38 -169.31,-4.87 -302.57,-63.18 -398.96,-175.78 -96.4,-112.19 -143.78,-264.89 -142.17,-457.68 1.63,-193.2 53.47,-345.09 156.35,-455.66 102.88,-110.97 227.22,-166.47 372.62,-166.47 145.81,0 271.37,58.74 377.49,175.79 106.11,117.05 151.07,300.52 135.27,550.42l-726.21 0c3.25,41.33 21.46,87.1 54.68,137.72 33.21,50.63 94.77,79.38 185.1,85.46 89.91,6.48 163.63,-23.49 220.74,-90.33l227.62 204.15zm-678.82 -574.33l408.26 0c-9.31,-56.71 -29.15,-104.91 -59.14,-144.6 -30.37,-39.7 -78.57,-59.94 -144.99,-61.56 -66.43,-1.63 -114.62,18.22 -144.59,59.13 -29.98,41.32 -49.83,90.32 -59.54,147.03zm1898.76 574.33c-139.33,133.25 -293.24,197.24 -462.54,192.38 -169.31,-4.87 -302.56,-63.18 -398.95,-175.78 -96.4,-112.19 -143.79,-264.89 -142.17,-457.68 1.62,-193.2 53.46,-345.09 156.34,-455.66 102.88,-110.97 227.22,-166.47 372.63,-166.47 145.8,0 271.36,58.74 377.48,175.79 106.12,117.05 151.07,300.52 135.27,550.42l-726.21 0c3.25,41.33 21.47,87.1 54.68,137.72 33.22,50.63 94.78,79.38 185.1,85.46 89.91,6.48 163.64,-23.49 220.74,-90.33l227.63 204.15zm-678.82 -574.33l408.26 0c-9.31,-56.71 -29.16,-104.91 -59.14,-144.6 -30.37,-39.7 -78.57,-59.94 -144.99,-61.56 -66.43,-1.63 -114.62,18.22 -144.59,59.13 -29.99,41.32 -49.83,90.32 -59.54,147.03zm978.12 750.1l0 -1523.71 313.09 -156.34 0 882.55 303.76 -408.26 384.38 0 -308.22 379.92 351.15 825.84 -356.01 0 -228.04 -550.43 -147.02 180.24 0 370.19 -313.09 0zm1110.59 -336.98l0 -289.59 844.89 -977.74 346.29 0 0 977.74 218.31 0 0 289.59 -218.31 0 0 336.98 -308.23 0 0 -336.98 -882.95 0zm375.06 -289.59l507.89 0 0 -593.36 -507.89 593.36zm1191.18 626.57l0 -1523.71 313.08 -156.34 0 1680.05 -313.08 0zm1613.62 -602.68c0,211.84 -53.87,369.38 -161.21,472.26 -107.73,102.88 -235.71,152.7 -384.36,149.46 -149.05,-3.24 -273.8,-61.56 -375.05,-175.78 -101.26,-113.82 -152.7,-268.13 -154.32,-462.54 -1.62,-194.82 49.81,-345.89 154.32,-453.23 104.5,-107.73 227.62,-162.41 370.18,-164.03 142.18,-1.62 269.75,48.2 381.95,149.45 112.59,101.26 168.49,262.87 168.49,484.41zm-317.95 0c0,-101.25 -19.03,-179.83 -57.11,-234.91 -37.66,-55.48 -90.73,-83.84 -158.76,-85.47 -68.05,-1.61 -122.73,24.31 -163.64,78.18 -41.31,53.87 -61.97,130.41 -61.97,230.05 0,100.05 19.05,179.02 57.11,237.35 38.08,58.73 90.73,88.7 158.78,90.32 68.04,1.62 122.72,-29.16 164.03,-92.76 40.91,-63.17 61.56,-137.29 61.56,-222.76zm429.74 -603.08l360.47 0 239.76 783.32 242.21 -783.32 346.3 0 -431.75 1205.76 -327.67 0 -429.32 -1205.76zm2304.19 1029.99c-139.33,133.25 -293.24,197.24 -462.54,192.38 -169.31,-4.87 -302.56,-63.18 -398.95,-175.78 -96.4,-112.19 -143.79,-264.89 -142.17,-457.68 1.63,-193.2 53.46,-345.09 156.34,-455.66 102.88,-110.97 227.22,-166.47 372.63,-166.47 145.81,0 271.36,58.74 377.49,175.79 106.11,117.05 151.07,300.52 135.27,550.42l-726.21 0c3.24,41.33 21.46,87.1 54.68,137.72 33.21,50.63 94.77,79.38 185.09,85.46 89.92,6.48 163.64,-23.49 220.75,-90.33l227.62 204.15zm-678.82 -574.33l408.26 0c-9.31,-56.71 -29.16,-104.91 -59.14,-144.6 -30.37,-39.7 -78.57,-59.94 -144.99,-61.56 -66.43,-1.63 -114.62,18.22 -144.59,59.13 -29.98,41.32 -49.83,90.32 -59.54,147.03z"/>
 </g>
</svg>
